<svg width="24" height="18" viewBox="0 0 24 18" fill="none" xmlns="http://www.w3.org/2000/svg">
<path fill-rule="evenodd" clip-rule="evenodd" d="M9.02977 0.3437C10.9834 -0.114566 13.0166 -0.114567 14.9703 0.3437C17.7916 1.0055 19.9946 3.20843 20.6564 6.02977C21.1146 7.98343 21.1146 10.0166 20.6564 11.9703C19.9946 14.7916 17.7916 16.9946 14.9703 17.6564C13.0166 18.1146 10.9834 18.1146 9.02977 17.6564C6.20843 16.9946 4.0055 14.7916 3.3437 11.9703C2.88543 10.0166 2.88543 7.98343 3.3437 6.02976C4.0055 3.20842 6.20842 1.0055 9.02977 0.3437ZM12.2758 6.12813C12.2758 5.79676 12.0072 5.52813 11.6758 5.52813C11.3445 5.52813 11.0758 5.79676 11.0758 6.12813V9.66427C11.0758 9.86942 11.1807 10.0604 11.3538 10.1705L14.0711 11.8994C14.3507 12.0773 14.7215 11.9949 14.8994 11.7153C15.0773 11.4357 14.9949 11.0649 14.7153 10.887L12.2758 9.33487V6.12813Z" fill="#F85B76"/>
</svg>
