<svg width="23" height="20" viewBox="0 0 23 20" fill="none" xmlns="http://www.w3.org/2000/svg">
<path fill-rule="evenodd" clip-rule="evenodd" d="M12 0C7.56777 0 4 3.70292 4 8.23891C4 10.4908 4.87829 12.9032 6.28347 14.757C7.68543 16.6066 9.69437 19.5 12 19.5C14.3056 19.5 16.3146 16.6066 17.7165 14.757C19.1217 12.9032 20 10.4908 20 8.23891C20 3.70292 16.4322 0 12 0ZM9.16571 7.61538C9.16571 6.035 10.4347 4.75385 12 4.75385C13.5653 4.75385 14.8343 6.035 14.8343 7.61538C14.8343 9.19577 13.5653 10.4769 12 10.4769C10.4347 10.4769 9.16571 9.19577 9.16571 7.61538ZM12 5.86154C11.0406 5.86154 10.2629 6.64676 10.2629 7.61538C10.2629 8.58401 11.0406 9.36923 12 9.36923C12.9594 9.36923 13.7371 8.58401 13.7371 7.61538C13.7371 6.64676 12.9594 5.86154 12 5.86154Z" fill="#F85B76"/>
</svg>
